<?xml version="1.0" encoding="UTF-8"?>
<svg xmlns="http://www.w3.org/2000/svg" xmlns:xlink="http://www.w3.org/1999/xlink" width="40px" height="40px" viewBox="0 0 40 40" version="1.1">
<g id="surface1">
<path style="fill-rule:nonzero;fill:rgb(100%,100%,100%);fill-opacity:1;stroke-width:1;stroke-linecap:butt;stroke-linejoin:miter;stroke:rgb(100%,100%,100%);stroke-opacity:1;stroke-miterlimit:4;" d="M 4.217969 9.280469 L 0.219531 5.282031 L 0.205469 5.265625 L 0.200781 5.263281 L 0.19375 5.253906 L 0.182031 5.239844 L 0.175 5.230469 L 0.165625 5.221094 L 0.149219 5.2 L 0.139844 5.188281 L 0.130469 5.171875 L 0.11875 5.155469 L 0.11875 5.150781 L 0.111719 5.141406 L 0.111719 5.127344 L 0.1 5.117969 L 0.1 5.113281 L 0.0882812 5.099219 C -0.0710938 4.799219 -0.0125 4.43125 0.233594 4.199219 L 4.217969 0.219531 C 4.515625 -0.0664062 4.982031 -0.059375 5.272656 0.228906 C 5.558594 0.519531 5.565625 0.988281 5.282031 1.28125 L 2.563281 4 L 14.750781 4 C 15.165625 4 15.500781 4.335156 15.500781 4.75 C 15.500781 5.164844 15.165625 5.5 14.750781 5.5 L 2.563281 5.5 L 5.282031 8.21875 C 5.48125 8.40625 5.563281 8.6875 5.497656 8.952344 C 5.427344 9.219531 5.21875 9.428125 4.953906 9.496094 C 4.686719 9.561719 4.405469 9.482031 4.217969 9.280469 Z M 4.217969 9.280469 " transform="matrix(1.666667,0,0,1.666667,7.083333,12.083333)"/>
</g>
</svg>
