<?xml version="1.0" encoding="UTF-8"?>
<svg xmlns="http://www.w3.org/2000/svg" xmlns:xlink="http://www.w3.org/1999/xlink" width="40px" height="40px" viewBox="0 0 40 40" version="1.1">
<g id="surface1">
<path style="fill-rule:nonzero;fill:rgb(100%,100%,100%);fill-opacity:1;stroke-width:1;stroke-linecap:butt;stroke-linejoin:miter;stroke:rgb(100%,100%,100%);stroke-opacity:1;stroke-miterlimit:4;" d="M 10.220313 9.280469 C 9.927344 8.9875 9.927344 8.511719 10.220313 8.221094 L 12.939063 5.5 L 0.749219 5.5 C 0.336719 5.5 -0.00078125 5.164844 -0.00078125 4.75 C -0.00078125 4.335156 0.336719 4 0.749219 4 L 12.939063 4 L 10.220313 1.28125 C 9.927344 0.988281 9.927344 0.5125 10.220313 0.219531 C 10.513281 -0.0734375 10.989063 -0.0734375 11.282031 0.219531 L 15.280469 4.220313 C 15.421094 4.360938 15.500781 4.550781 15.500781 4.75 C 15.500781 4.949219 15.421094 5.139063 15.280469 5.279688 L 11.282031 9.280469 C 10.989063 9.573438 10.513281 9.573438 10.220313 9.280469 Z M 10.220313 9.280469 " transform="matrix(1.666667,0,0,1.666667,7.083333,12.083333)"/>
</g>
</svg>
