<?xml version="1.0" encoding="utf-8"?>
<!-- Generator: Adobe Illustrator 28.4.1, SVG Export Plug-In . SVG Version: 6.00 Build 0)  -->
<svg version="1.1" id="Layer_1" xmlns="http://www.w3.org/2000/svg" xmlns:xlink="http://www.w3.org/1999/xlink" x="0px" y="0px"
	 viewBox="0 0 438 173" style="enable-background:new 0 0 438 173;" xml:space="preserve">
<style type="text/css">
	.st0{fill-rule:evenodd;clip-rule:evenodd;fill:#FFFFFF;filter:url(#Adobe_OpacityMaskFilter);}
	.st1{mask:url(#a_00000021110209583258918950000017019595981730662041_);fill-rule:evenodd;clip-rule:evenodd;fill:#FFF9F0;}
	.st2{fill-rule:evenodd;clip-rule:evenodd;fill:#CC7100;}
	.st3{fill-rule:evenodd;clip-rule:evenodd;fill:#FFDCB0;}
	.st4{fill-rule:evenodd;clip-rule:evenodd;fill:#FFFFFF;}
	.st5{fill-rule:evenodd;clip-rule:evenodd;fill:#FFB85F;}
	.st6{fill-rule:evenodd;clip-rule:evenodd;fill:#FFDDB3;}
	
		.st7{fill-rule:evenodd;clip-rule:evenodd;fill:#FFFFFF;filter:url(#Adobe_OpacityMaskFilter_00000114753081721036986780000008133198556908996018_);}
	.st8{mask:url(#b_00000121985525841261532380000013257854588697515136_);fill-rule:evenodd;clip-rule:evenodd;fill:#FFB14D;}
	
		.st9{fill-rule:evenodd;clip-rule:evenodd;fill:#FFFFFF;filter:url(#Adobe_OpacityMaskFilter_00000112591508615112891760000005822717563173625000_);}
	.st10{mask:url(#b_00000053526702155719337110000006915322808283986060_);fill-rule:evenodd;clip-rule:evenodd;fill:#FFFFFF;}
	
		.st11{fill-rule:evenodd;clip-rule:evenodd;fill:#FFFFFF;filter:url(#Adobe_OpacityMaskFilter_00000070822127148140709740000001186628152133417140_);}
	.st12{mask:url(#b_00000164480939184296966740000015659955658761963437_);fill-rule:evenodd;clip-rule:evenodd;fill:#FFFEFC;}
	
		.st13{fill-rule:evenodd;clip-rule:evenodd;fill:#FFFFFF;filter:url(#Adobe_OpacityMaskFilter_00000099652351341655062070000011695968193492922792_);}
	.st14{mask:url(#b_00000108303571272242406230000011294323271271229577_);fill-rule:evenodd;clip-rule:evenodd;fill:#CC7100;}
	
		.st15{fill-rule:evenodd;clip-rule:evenodd;fill:#FFFFFF;filter:url(#Adobe_OpacityMaskFilter_00000125577780296993603260000004442730617543637889_);}
	.st16{mask:url(#b_00000091725374187388514230000000136900782543379624_);fill-rule:evenodd;clip-rule:evenodd;fill:#CC7100;}
	
		.st17{fill-rule:evenodd;clip-rule:evenodd;fill:#FFFFFF;filter:url(#Adobe_OpacityMaskFilter_00000054982110239279152990000006238625050167838096_);}
	.st18{mask:url(#b_00000131330385243320952750000012748680817639301255_);fill-rule:evenodd;clip-rule:evenodd;fill:#FFF2E1;}
	
		.st19{fill-rule:evenodd;clip-rule:evenodd;fill:#FFFFFF;filter:url(#Adobe_OpacityMaskFilter_00000008107412092175377630000006405525359289246618_);}
	.st20{mask:url(#b_00000181779328412885933970000012936105866955665310_);fill:none;stroke:#CC7100;stroke-width:1.723;}
	
		.st21{fill-rule:evenodd;clip-rule:evenodd;fill:#FFFFFF;filter:url(#Adobe_OpacityMaskFilter_00000031179785549152453320000015700752462756906141_);}
	.st22{mask:url(#b_00000139971905638260032220000002001170919377796003_);fill-rule:evenodd;clip-rule:evenodd;fill:#CC7100;}
	
		.st23{fill-rule:evenodd;clip-rule:evenodd;fill:#FFFFFF;filter:url(#Adobe_OpacityMaskFilter_00000069369049466924008800000014668707203371460249_);}
	.st24{mask:url(#b_00000154420290628980468560000011956253451506622368_);fill-rule:evenodd;clip-rule:evenodd;fill:#CC7100;}
	
		.st25{fill-rule:evenodd;clip-rule:evenodd;fill:#FFFFFF;filter:url(#Adobe_OpacityMaskFilter_00000150825096323335543470000008426404326696361892_);}
	.st26{mask:url(#b_00000070118091364317722500000010024379168631898809_);fill-rule:evenodd;clip-rule:evenodd;fill:#CC7100;}
	
		.st27{fill-rule:evenodd;clip-rule:evenodd;fill:#FFFFFF;filter:url(#Adobe_OpacityMaskFilter_00000042014408817820918900000002062395269554859958_);}
	.st28{mask:url(#b_00000100351408071479790490000001855373107979093398_);fill-rule:evenodd;clip-rule:evenodd;fill:#CC7100;}
	
		.st29{fill-rule:evenodd;clip-rule:evenodd;fill:#FFFFFF;filter:url(#Adobe_OpacityMaskFilter_00000183954223751958725640000001867854099894841003_);}
	.st30{mask:url(#b_00000088125261496506425610000017805099217963413931_);fill-rule:evenodd;clip-rule:evenodd;fill:#CC7100;}
	
		.st31{fill-rule:evenodd;clip-rule:evenodd;fill:#FFFFFF;filter:url(#Adobe_OpacityMaskFilter_00000048461425099923025940000017414462189806068869_);}
	.st32{mask:url(#b_00000162316116888338684510000006660854806602777778_);fill-rule:evenodd;clip-rule:evenodd;fill:#CC7100;}
	
		.st33{fill-rule:evenodd;clip-rule:evenodd;fill:#FFFFFF;filter:url(#Adobe_OpacityMaskFilter_00000165224531633207488220000008192049861936302783_);}
	.st34{mask:url(#b_00000034787876715776910250000001611288826928399763_);fill-rule:evenodd;clip-rule:evenodd;fill:#CC7100;}
	
		.st35{fill-rule:evenodd;clip-rule:evenodd;fill:#FFFFFF;filter:url(#Adobe_OpacityMaskFilter_00000136400215387131184170000010047657332744857984_);}
	.st36{mask:url(#b_00000127749846909392234800000008670442357797900479_);fill-rule:evenodd;clip-rule:evenodd;fill:#CC7100;}
	
		.st37{fill-rule:evenodd;clip-rule:evenodd;fill:#FFFFFF;filter:url(#Adobe_OpacityMaskFilter_00000140730727037248342270000002983102057430468765_);}
	.st38{mask:url(#b_00000111166590054047278950000015573215441216252083_);fill-rule:evenodd;clip-rule:evenodd;fill:#CC7100;}
	
		.st39{fill-rule:evenodd;clip-rule:evenodd;fill:#FFFFFF;filter:url(#Adobe_OpacityMaskFilter_00000034777577573211869340000008742364629622926467_);}
	.st40{mask:url(#b_00000021085888587212809270000014517121690947160458_);fill-rule:evenodd;clip-rule:evenodd;fill:#CC7100;}
	
		.st41{fill-rule:evenodd;clip-rule:evenodd;fill:#FFFFFF;filter:url(#Adobe_OpacityMaskFilter_00000167362226349690006820000002454703571005847690_);}
	.st42{mask:url(#b_00000124144295394984275830000005446072887481601951_);fill-rule:evenodd;clip-rule:evenodd;fill:#CC7100;}
	
		.st43{fill-rule:evenodd;clip-rule:evenodd;fill:#FFFFFF;filter:url(#Adobe_OpacityMaskFilter_00000139277172752704186660000012671978585478792126_);}
	.st44{mask:url(#b_00000060721565615497673010000000864926708069055406_);fill-rule:evenodd;clip-rule:evenodd;fill:#CC7100;}
	
		.st45{fill-rule:evenodd;clip-rule:evenodd;fill:#FFFFFF;filter:url(#Adobe_OpacityMaskFilter_00000164485670713709148290000005861172729443557278_);}
	.st46{mask:url(#b_00000073693145912414804510000009821344277420964030_);fill-rule:evenodd;clip-rule:evenodd;fill:#CC7100;}
	
		.st47{fill-rule:evenodd;clip-rule:evenodd;fill:#FFFFFF;filter:url(#Adobe_OpacityMaskFilter_00000072240584185746736190000001049771929494908576_);}
	.st48{mask:url(#b_00000065039867986323931830000011565298899126808992_);fill-rule:evenodd;clip-rule:evenodd;fill:#CC7100;}
	
		.st49{fill-rule:evenodd;clip-rule:evenodd;fill:#FFFFFF;filter:url(#Adobe_OpacityMaskFilter_00000151526161520879161210000017753964981802013371_);}
	.st50{mask:url(#b_00000026853315567334617460000013570589716487168684_);fill-rule:evenodd;clip-rule:evenodd;fill:#CC7100;}
	
		.st51{fill-rule:evenodd;clip-rule:evenodd;fill:#FFFFFF;filter:url(#Adobe_OpacityMaskFilter_00000118381703794826048910000014431447898967145629_);}
	.st52{mask:url(#b_00000061447038680355986780000002174738875761026700_);fill-rule:evenodd;clip-rule:evenodd;fill:#CC7100;}
	
		.st53{fill-rule:evenodd;clip-rule:evenodd;fill:#FFFFFF;filter:url(#Adobe_OpacityMaskFilter_00000062887930761535834770000004289459642738589106_);}
	.st54{mask:url(#b_00000090287946241504703800000000226071993805978257_);fill-rule:evenodd;clip-rule:evenodd;fill:#CC7100;}
	
		.st55{fill-rule:evenodd;clip-rule:evenodd;fill:#FFFFFF;filter:url(#Adobe_OpacityMaskFilter_00000078761556988863201270000018049881566376503444_);}
	.st56{mask:url(#b_00000039854922287589811400000014174868712090256315_);fill-rule:evenodd;clip-rule:evenodd;fill:#CC7100;}
	
		.st57{fill-rule:evenodd;clip-rule:evenodd;fill:#FFFFFF;filter:url(#Adobe_OpacityMaskFilter_00000163050062829164240040000007225676423152630163_);}
	.st58{mask:url(#b_00000049197285174895958440000007145160126659662507_);fill-rule:evenodd;clip-rule:evenodd;fill:#FFDCB0;}
	
		.st59{fill-rule:evenodd;clip-rule:evenodd;fill:#FFFFFF;filter:url(#Adobe_OpacityMaskFilter_00000020369605864378235560000013891133657327046280_);}
	.st60{mask:url(#b_00000072246695062437885720000005508982648585311893_);fill-rule:evenodd;clip-rule:evenodd;fill:#FFFFFF;}
	
		.st61{fill-rule:evenodd;clip-rule:evenodd;fill:#FFFFFF;filter:url(#Adobe_OpacityMaskFilter_00000160171753127676605590000007904901918721877636_);}
	.st62{mask:url(#b_00000034783449166927917510000004460858787599945351_);fill-rule:evenodd;clip-rule:evenodd;fill:#CC7100;}
	
		.st63{fill-rule:evenodd;clip-rule:evenodd;fill:#FFFFFF;filter:url(#Adobe_OpacityMaskFilter_00000173132096404359353780000001713002205016236964_);}
	.st64{mask:url(#b_00000054982269206585361790000010072184936972033667_);fill-rule:evenodd;clip-rule:evenodd;fill:#CC7100;}
	
		.st65{fill-rule:evenodd;clip-rule:evenodd;fill:#FFFFFF;filter:url(#Adobe_OpacityMaskFilter_00000101802202407975826140000007755132052912563334_);}
	.st66{mask:url(#b_00000135684220990163124870000008006378629556310954_);fill-rule:evenodd;clip-rule:evenodd;fill:#CC7100;}
	
		.st67{fill-rule:evenodd;clip-rule:evenodd;fill:#FFFFFF;filter:url(#Adobe_OpacityMaskFilter_00000124150546225066593000000005263396068043140280_);}
	.st68{mask:url(#b_00000000926944898343818350000002564910345148572843_);fill-rule:evenodd;clip-rule:evenodd;fill:#FFDCB0;}
	
		.st69{fill-rule:evenodd;clip-rule:evenodd;fill:#FFFFFF;filter:url(#Adobe_OpacityMaskFilter_00000173839356560139110040000004251595603498468780_);}
	.st70{mask:url(#b_00000070091271056462645040000006391531877016234406_);fill-rule:evenodd;clip-rule:evenodd;fill:#FFFFFF;}
	
		.st71{fill-rule:evenodd;clip-rule:evenodd;fill:#FFFFFF;filter:url(#Adobe_OpacityMaskFilter_00000027563205707014691390000015472545372553545349_);}
	.st72{mask:url(#b_00000076592645465745688250000001890298357069028009_);fill-rule:evenodd;clip-rule:evenodd;fill:#CC7100;}
	
		.st73{fill-rule:evenodd;clip-rule:evenodd;fill:#FFFFFF;filter:url(#Adobe_OpacityMaskFilter_00000171698922385963446310000002892849978101411997_);}
	.st74{mask:url(#b_00000050656964207065938450000001307347254204659888_);fill-rule:evenodd;clip-rule:evenodd;fill:#CC7100;}
	
		.st75{fill-rule:evenodd;clip-rule:evenodd;fill:#FFFFFF;filter:url(#Adobe_OpacityMaskFilter_00000168117691781838085870000017088922363073263014_);}
	.st76{mask:url(#b_00000090253009438470074100000005959777407505751425_);fill-rule:evenodd;clip-rule:evenodd;fill:#CC7100;}
	
		.st77{fill-rule:evenodd;clip-rule:evenodd;fill:#FFFFFF;filter:url(#Adobe_OpacityMaskFilter_00000126318032257239782780000007740915014430563468_);}
	.st78{mask:url(#b_00000086688699981533877780000005884101884146619838_);fill-rule:evenodd;clip-rule:evenodd;fill:#CC7100;}
	
		.st79{fill-rule:evenodd;clip-rule:evenodd;fill:#FFFFFF;filter:url(#Adobe_OpacityMaskFilter_00000101805501764437676330000012616785600901940613_);}
	.st80{mask:url(#b_00000060015747876283338430000017562485503570399660_);fill-rule:evenodd;clip-rule:evenodd;fill:#CC7100;}
	
		.st81{fill-rule:evenodd;clip-rule:evenodd;fill:#FFFFFF;filter:url(#Adobe_OpacityMaskFilter_00000099639535499356226730000002302758767914823853_);}
	.st82{mask:url(#b_00000150792575735696065860000013357625455479978655_);fill-rule:evenodd;clip-rule:evenodd;fill:#CC7100;}
</style>
<g transform="translate(0 -1)">
	<defs>
		<filter id="Adobe_OpacityMaskFilter" filterUnits="userSpaceOnUse" x="0.3" y="1.4" width="437.5" height="171.6">
			<feColorMatrix  type="matrix" values="1 0 0 0 0  0 1 0 0 0  0 0 1 0 0  0 0 0 1 0"/>
		</filter>
	</defs>
	
		<mask maskUnits="userSpaceOnUse" x="0.3" y="1.4" width="437.5" height="171.6" id="a_00000021110209583258918950000017019595981730662041_">
		<path class="st0" d="M0.3,2.1h437.5v171.6H0.3V2.1z"/>
	</mask>
	<path class="st1" d="M376.2,44h-44.6c-10.1,0-18.3,8-18.3,17.9c0,9.8,8.1,17.8,18.1,17.9l85.1,0.6c11.7,0.1,21.2,9.4,21.2,21
		c0,11.6-9.6,21-21.4,21h-33.2c-20.3,0-36.7,16.1-36.7,36V173L101.7,172c0-18.7-15.5-33.9-34.5-33.9H23.8c-13,0-23.5-10.3-23.5-23
		c0-12.7,10.5-23,23.5-23h72.8c12,0,21.6-9.5,21.6-21.2c0-11.7-9.7-21.2-21.6-21.2H62.2c-13.6,0-24.6-10.8-24.6-24.1
		c0-13.3,11-24.1,24.6-24.1h314c12,0,21.8,9.6,21.8,21.3C398,34.5,388.2,44,376.2,44"/>
	<g>
		<path class="st2" d="M367.5,85.7c-0.6,0-1-0.6-1-1.3v-7.6c0-0.7,0.5-1.3,1-1.3s1,0.6,1,1.3v7.6C368.5,85.1,368.1,85.7,367.5,85.7"
			/>
		<path class="st2" d="M372.6,80.6c0,0.6-0.6,1-1.3,1h-7.6c-0.7,0-1.3-0.5-1.3-1s0.6-1,1.3-1h7.6C372,79.6,372.6,80.1,372.6,80.6"/>
		<path class="st2" d="M117.9,173.6c-0.8,0-1.5-0.7-1.5-1.5s0.7-1.5,1.5-1.5c0.8,0,1.5,0.7,1.5,1.5S118.8,173.6,117.9,173.6"/>
		<path class="st2" d="M295.9,43.6c-0.8,0-1.5-0.7-1.5-1.5s0.7-1.5,1.5-1.5c0.8,0,1.5,0.7,1.5,1.5S296.8,43.6,295.9,43.6"/>
		<path class="st2" d="M110.3,62.6c-0.4,0.4-0.5,1-0.1,1.5l3.9,4.4c0.2,0.2,0.4,0.3,0.7,0.3c0.3,0,0.5-0.1,0.7-0.3
			c0.4-0.4,0.5-1,0.1-1.5l-3.9-4.4c-0.2-0.2-0.4-0.3-0.7-0.3C110.7,62.3,110.5,62.4,110.3,62.6"/>
		<path class="st2" d="M115.6,62.6c0.4,0.4,0.5,1,0.1,1.5l-3.9,4.4c-0.2,0.2-0.4,0.3-0.7,0.3c-0.3,0-0.5-0.1-0.7-0.3
			c-0.4-0.4-0.5-1-0.1-1.5l3.9-4.4c0.2-0.2,0.4-0.3,0.7-0.3C115.1,62.3,115.4,62.4,115.6,62.6"/>
		<path class="st2" d="M45.8,48.2h53.1c0.5,0,0.9,0.4,0.9,0.9v0.2c0,0.5-0.4,0.9-0.9,0.9H45.8c-0.5,0-0.9-0.4-0.9-0.9v-0.2
			C44.9,48.6,45.3,48.2,45.8,48.2"/>
		<path class="st2" d="M133.1,14.3h31.1c0.5,0,0.9,0.4,0.9,0.9v0.2c0,0.5-0.4,0.9-0.9,0.9h-31.1c-0.5,0-0.9-0.4-0.9-0.9v-0.2
			C132.2,14.8,132.6,14.3,133.1,14.3"/>
	</g>
	<path class="st3" d="M293,164.4H145.6V74.9c0-3.6,2.9-6.5-3.5-6.5h134.3c13.6,0,16.5,2.9,16.5,6.5L293,164.4z"/>
	<path class="st4" d="M150.4,159.5V74.9c0-0.9,0.8-1.7,1.7-1.7h134.3c0.9,0,1.7,0.8,1.7,1.7v84.7H150.4z"/>
	<path class="st5" d="M243.3,157v5.9H195V157h-59.7v8.8c-0.2,3.1,2.3,5.7,3.8,5.9h156.7c4.9-0.2,7.4-2.8,7.2-5.9V157H243.3z"/>
	<path class="st2" d="M250.1,69.3h6.5c0.9,0,1.6-0.7,1.6-1.6s-0.7-1.6-1.6-1.6h-6.5c-0.9,0-1.6,0.7-1.6,1.6S249.3,69.3,250.1,69.3"
		/>
	<path class="st2" d="M286.6,66.2h-4.2c-0.9,0-1.6,0.7-1.6,1.6c0,0.9,0.7,1.6,1.6,1.6h4.2c2.4,0,4.3,1.9,4.3,4.3v81.9h-48.4
		c-0.9,0-1.6,0.7-1.6,1.6v4.3H197V157c0-0.9-0.7-1.6-1.6-1.6H147v-16c0-0.8-0.5-1.5-1.3-1.6c-1-0.2-1.8,0.6-1.8,1.5V157
		c0,0.9,0.7,1.6,1.6,1.6h48.4v4.3c0,0.9,0.7,1.6,1.6,1.6h47c0.9,0,1.6-0.7,1.6-1.6v-4.3h48.4c0.9,0,1.6-0.7,1.6-1.6V73.6
		C294.1,69.5,290.7,66.2,286.6,66.2"/>
	<path class="st2" d="M145.8,117.4c0.8-0.1,1.3-0.8,1.3-1.6V73.6c0-2.4,1.9-4.3,4.3-4.3h67.6c0.9,0,1.6-0.7,1.6-1.6
		c0-0.9-0.7-1.6-1.6-1.6h-67.6c-4.1,0-7.4,3.3-7.4,7.4v42.2C143.9,116.8,144.8,117.6,145.8,117.4"/>
	<path class="st2" d="M135.3,165.8c0,2.4,1.9,4.3,4.3,4.3h158.8c2.4,0,4.3-1.9,4.3-4.3v-7.3h-58.6v4.3c0,0.9-0.7,1.6-1.6,1.6h-47
		c-0.9,0-1.6-0.7-1.6-1.6v-4.3h-58.6L135.3,165.8z M139.6,173.3c-4.1,0-7.4-3.3-7.4-7.4V157c0-0.9,0.7-1.6,1.6-1.6h61.8
		c0.9,0,1.6,0.7,1.6,1.6v4.3H241V157c0-0.9,0.7-1.6,1.6-1.6h61.8c0.9,0,1.6,0.7,1.6,1.6v8.8c0,4.1-3.3,7.4-7.4,7.4h0H139.6z"/>
	<path class="st5" d="M231.5,88.7c0-6.1-4.5-11.2-10.4-12.1c-0.1,0-0.1,0-0.2,0c-0.1,0-0.2,0-0.4,0c-0.1,0-0.2,0-0.3,0
		c-0.1,0-0.2,0-0.3,0c0,0,0,0-0.1,0c-0.1,0-0.2,0-0.3,0c-0.1,0-0.2,0-0.3,0c-0.1,0-0.2,0-0.3,0c-0.1,0-0.2,0-0.3,0c0,0,0,0-0.1,0
		c-0.1,0-0.2,0-0.3,0c-0.1,0-0.2,0-0.3,0c-0.1,0-0.2,0-0.4,0c-0.1,0-0.1,0-0.2,0c-5.9,0.9-10.4,6-10.4,12.1c0,0,0,0.1,0,0.1
		c0,0.1,0,0.2,0,0.2v6.2h4.9v-6.3c0-3.5,2.4-6.7,5.8-7.4c0,0,0,0,0,0c0.1,0,0.2,0,0.3-0.1c0,0,0.1,0,0.1,0c0.1,0,0.1,0,0.2,0
		c0.1,0,0.1,0,0.2,0c0.1,0,0.1,0,0.2,0c0.1,0,0.1,0,0.2,0c0.1,0,0.1,0,0.2,0c0.1,0,0.1,0,0.2,0c0.1,0,0.1,0,0.2,0c0.1,0,0.1,0,0.2,0
		c0.1,0,0.1,0,0.2,0c0.1,0,0.1,0,0.2,0c0.1,0,0.1,0,0.2,0c0.1,0,0.1,0,0.2,0c0,0,0.1,0,0.1,0c0.1,0,0.2,0,0.3,0.1c0,0,0,0,0,0
		c3.4,0.7,5.8,3.9,5.8,7.4v6.3h4.9V89c0-0.1,0-0.2,0-0.2C231.5,88.7,231.5,88.7,231.5,88.7"/>
	<path class="st2" d="M230.4,94h-2.6v-1.5l0-4.1c-0.1-3.9-2.9-7.2-6.6-8.1c0,0-0.1,0-0.1,0c-0.1,0-0.1,0-0.2,0c-0.1,0-0.1,0-0.2,0
		c0,0-0.1,0-0.1,0c-0.1,0-0.2,0-0.3,0c0,0-0.1,0-0.1,0c-0.1,0-0.2,0-0.2,0c0,0,0,0-0.1,0c-0.2,0-0.3,0-0.5,0c-0.2,0-0.3,0-0.5,0
		c0,0,0,0-0.1,0c-0.1,0-0.2,0-0.2,0c0,0-0.1,0-0.1,0c-0.1,0-0.2,0-0.3,0c0,0-0.1,0-0.1,0c-0.1,0-0.1,0-0.2,0c-0.1,0-0.1,0-0.2,0
		c0,0,0,0-0.1,0c-3.8,0.8-6.6,4.2-6.6,8.3v2.3V94h-2.6v-3.1l0-2.3c0.2-5.4,3.9-9.8,8.9-10.8c0.1,0,0.2,0,0.2,0c0.1,0,0.2,0,0.3-0.1
		c0.1,0,0.3,0,0.4-0.1c0,0,0.1,0,0.1,0c0.1,0,0.3,0,0.4,0c0.1,0,0.1,0,0.2,0c0.2,0,0.4,0,0.6,0c0.2,0,0.4,0,0.6,0c0.1,0,0.1,0,0.2,0
		c0.1,0,0.3,0,0.4,0c0.1,0,0.1,0,0.1,0c0.1,0,0.3,0,0.4,0.1c0.1,0,0.2,0,0.3,0.1c0.1,0,0.2,0,0.2,0c4.9,1,8.6,5.4,8.9,10.6
		c0,0,0,0.3,0,0.3v2c0,0,0,0,0,0L230.4,94z M231.5,88.7c0-6.3-4.8-11.6-11-12.2c-0.1,0-0.1,0-0.2,0c-0.1,0-0.3,0-0.4,0c0,0,0,0,0,0
		c-0.2,0-0.4,0-0.6,0c-0.2,0-0.4,0-0.6,0c0,0,0,0,0,0c-0.1,0-0.3,0-0.4,0c-0.1,0-0.2,0-0.2,0c-6.2,0.6-11,5.8-11,12.2
		c0,0,0,0.1,0,0.1c0,0.1,0,0.2,0,0.2v6.2h4.9v-6.3c0-3.6,2.6-6.8,6-7.5c0,0,0.1,0,0.1,0c0.1,0,0.1,0,0.2,0c0.1,0,0.1,0,0.2,0
		c0.1,0,0.1,0,0.2,0c0.1,0,0.1,0,0.2,0c0.1,0,0.3,0,0.4,0s0.3,0,0.4,0c0.1,0,0.1,0,0.2,0c0.1,0,0.1,0,0.2,0c0.1,0,0.1,0,0.2,0
		c0.1,0,0.1,0,0.2,0c0,0,0.1,0,0.1,0c3.5,0.6,6,3.8,6,7.5v6.3h4.9V89c0-0.1,0-0.2,0-0.2C231.5,88.7,231.5,88.7,231.5,88.7
		L231.5,88.7z"/>
	<path class="st6" d="M227.4,116.4h-16.3c-4.5,0-8.2-3.6-8.2-8.2V96.8c0-1.8,1.5-3.3,3.3-3.3h26.1c1.8,0,3.3,1.5,3.3,3.3v11.4
		C235.6,112.7,231.9,116.4,227.4,116.4"/>
	<defs>
		
			<filter id="Adobe_OpacityMaskFilter_00000106850167710145660890000006299015424757538186_" filterUnits="userSpaceOnUse" x="203.8" y="97.6" width="31" height="5.3">
			<feColorMatrix  type="matrix" values="1 0 0 0 0  0 1 0 0 0  0 0 1 0 0  0 0 0 1 0"/>
		</filter>
	</defs>
	
		<mask maskUnits="userSpaceOnUse" x="203.8" y="97.6" width="31" height="5.3" id="b_00000121985525841261532380000013257854588697515136_">
		
			<path style="fill-rule:evenodd;clip-rule:evenodd;fill:#FFFFFF;filter:url(#Adobe_OpacityMaskFilter_00000106850167710145660890000006299015424757538186_);" d="
			M0.3,174.6h437.5V2.4H0.3V174.6z"/>
	</mask>
	<path class="st8" d="M203.8,102.9h31v-5.3h-31V102.9z"/>
	<defs>
		
			<filter id="Adobe_OpacityMaskFilter_00000002384173783468244210000011050634508405366144_" filterUnits="userSpaceOnUse" x="203.8" y="97.6" width="31" height="0.8">
			<feColorMatrix  type="matrix" values="1 0 0 0 0  0 1 0 0 0  0 0 1 0 0  0 0 0 1 0"/>
		</filter>
	</defs>
	
		<mask maskUnits="userSpaceOnUse" x="203.8" y="97.6" width="31" height="0.8" id="b_00000053526702155719337110000006915322808283986060_">
		
			<path style="fill-rule:evenodd;clip-rule:evenodd;fill:#FFFFFF;filter:url(#Adobe_OpacityMaskFilter_00000002384173783468244210000011050634508405366144_);" d="
			M0.3,174.6h437.5V2.4H0.3V174.6z"/>
	</mask>
	<path class="st10" d="M203.8,98.4h31v-0.8h-31V98.4z"/>
	<defs>
		
			<filter id="Adobe_OpacityMaskFilter_00000049923600033379312950000003478280951888303267_" filterUnits="userSpaceOnUse" x="217.7" y="105.8" width="3.3" height="6.5">
			<feColorMatrix  type="matrix" values="1 0 0 0 0  0 1 0 0 0  0 0 1 0 0  0 0 0 1 0"/>
		</filter>
	</defs>
	
		<mask maskUnits="userSpaceOnUse" x="217.7" y="105.8" width="3.3" height="6.5" id="b_00000164480939184296966740000015659955658761963437_">
		
			<path style="fill-rule:evenodd;clip-rule:evenodd;fill:#FFFFFF;filter:url(#Adobe_OpacityMaskFilter_00000049923600033379312950000003478280951888303267_);" d="
			M0.3,174.6h437.5V2.4H0.3V174.6z"/>
	</mask>
	<path class="st12" d="M220.9,107.4c0-0.9-0.7-1.6-1.6-1.6s-1.6,0.7-1.6,1.6c0,0.5,0.3,1,0.7,1.3l-0.7,3.6h3.3l-0.7-3.6
		C220.7,108.4,220.9,107.9,220.9,107.4"/>
	<defs>
		
			<filter id="Adobe_OpacityMaskFilter_00000002348985586673818830000014123359327647853972_" filterUnits="userSpaceOnUse" x="203" y="93.5" width="32.6" height="22.8">
			<feColorMatrix  type="matrix" values="1 0 0 0 0  0 1 0 0 0  0 0 1 0 0  0 0 0 1 0"/>
		</filter>
	</defs>
	
		<mask maskUnits="userSpaceOnUse" x="203" y="93.5" width="32.6" height="22.8" id="b_00000108303571272242406230000011294323271271229577_">
		
			<path style="fill-rule:evenodd;clip-rule:evenodd;fill:#FFFFFF;filter:url(#Adobe_OpacityMaskFilter_00000002348985586673818830000014123359327647853972_);" d="
			M0.3,174.6h437.5V2.4H0.3V174.6z"/>
	</mask>
	<path class="st14" d="M232.3,93.5h-26.1c-1.8,0-3.3,1.5-3.3,3.3v11.4c0,4.5,3.6,8.2,8.2,8.2h16.3c4.5,0,8.2-3.7,8.2-8.2V96.8
		C235.6,95,234.1,93.5,232.3,93.5 M232.3,94.7c1.2,0,2.1,0.9,2.1,2.1v11.4c0,3.9-3.1,7-7,7h-16.3c-3.9,0-7-3.1-7-7V96.8
		c0-1.2,1-2.1,2.1-2.1H232.3z"/>
	<defs>
		
			<filter id="Adobe_OpacityMaskFilter_00000057112235911865419870000013521925809574639256_" filterUnits="userSpaceOnUse" x="203.4" y="97.6" width="31.8" height="14.7">
			<feColorMatrix  type="matrix" values="1 0 0 0 0  0 1 0 0 0  0 0 1 0 0  0 0 0 1 0"/>
		</filter>
	</defs>
	
		<mask maskUnits="userSpaceOnUse" x="203.4" y="97.6" width="31.8" height="14.7" id="b_00000091725374187388514230000000136900782543379624_">
		
			<path style="fill-rule:evenodd;clip-rule:evenodd;fill:#FFFFFF;filter:url(#Adobe_OpacityMaskFilter_00000057112235911865419870000013521925809574639256_);" d="
			M0.3,174.6h437.5V2.4H0.3V174.6z"/>
	</mask>
	<path class="st16" d="M219.3,105.8c-0.9,0-1.6,0.7-1.6,1.6c0,0.5,0.3,1,0.7,1.3l-0.7,3.6h3.3l-0.7-3.6c0.4-0.3,0.7-0.8,0.7-1.3
		C220.9,106.5,220.2,105.8,219.3,105.8 M219.3,106.1c0.7,0,1.3,0.6,1.3,1.3c0,0.4-0.2,0.8-0.5,1.1c-0.1,0.1-0.1,0.2-0.1,0.3l0.6,3.3
		H218l0.6-3.3c0-0.1,0-0.2-0.1-0.3c-0.3-0.3-0.5-0.6-0.5-1.1C217.9,106.7,218.5,106.1,219.3,106.1 M234.8,103.3h-31
		c-0.2,0-0.4-0.2-0.4-0.4c0-0.2,0.2-0.4,0.4-0.4h31c0.2,0,0.4,0.2,0.4,0.4C235.2,103.1,235,103.3,234.8,103.3 M225.4,98.4h-21.6
		c-0.2,0-0.4-0.2-0.4-0.4c0-0.2,0.2-0.4,0.4-0.4h21.6c0.2,0,0.4,0.2,0.4,0.4C225.8,98.3,225.6,98.4,225.4,98.4 M229.5,98.4h-1.6
		c-0.2,0-0.4-0.2-0.4-0.4c0-0.2,0.2-0.4,0.4-0.4h1.6c0.2,0,0.4,0.2,0.4,0.4C229.9,98.3,229.7,98.4,229.5,98.4 M234.8,98.4h-2.9
		c-0.2,0-0.4-0.2-0.4-0.4c0-0.2,0.2-0.4,0.4-0.4h2.9c0.2,0,0.4,0.2,0.4,0.4C235.2,98.3,235,98.4,234.8,98.4"/>
	<defs>
		
			<filter id="Adobe_OpacityMaskFilter_00000116207463652445319240000003477421957204318351_" filterUnits="userSpaceOnUse" x="177.3" y="122.3" width="83.9" height="17.3">
			<feColorMatrix  type="matrix" values="1 0 0 0 0  0 1 0 0 0  0 0 1 0 0  0 0 0 1 0"/>
		</filter>
	</defs>
	
		<mask maskUnits="userSpaceOnUse" x="177.3" y="122.3" width="83.9" height="17.3" id="b_00000131330385243320952750000012748680817639301255_">
		
			<path style="fill-rule:evenodd;clip-rule:evenodd;fill:#FFFFFF;filter:url(#Adobe_OpacityMaskFilter_00000116207463652445319240000003477421957204318351_);" d="
			M0.3,174.6h437.5V2.4H0.3V174.6z"/>
	</mask>
	<path class="st18" d="M252.6,139.6H186c-4.8,0-8.7-3.9-8.7-8.7c0-4.8,3.9-8.7,8.7-8.7h66.6c4.8,0,8.7,3.9,8.7,8.7
		C261.2,135.8,257.4,139.6,252.6,139.6"/>
	<defs>
		
			<filter id="Adobe_OpacityMaskFilter_00000044149687766163834210000015723775282990487704_" filterUnits="userSpaceOnUse" x="176.5" y="121.5" width="85.6" height="19">
			<feColorMatrix  type="matrix" values="1 0 0 0 0  0 1 0 0 0  0 0 1 0 0  0 0 0 1 0"/>
		</filter>
	</defs>
	
		<mask maskUnits="userSpaceOnUse" x="176.5" y="121.5" width="85.6" height="19" id="b_00000181779328412885933970000012936105866955665310_">
		
			<path style="fill-rule:evenodd;clip-rule:evenodd;fill:#FFFFFF;filter:url(#Adobe_OpacityMaskFilter_00000044149687766163834210000015723775282990487704_);" d="
			M0.3,174.6h437.5V2.4H0.3V174.6z"/>
	</mask>
	<path class="st20" d="M252.6,139.6H186c-4.8,0-8.7-3.9-8.7-8.7c0-4.8,3.9-8.7,8.7-8.7h66.6c4.8,0,8.7,3.9,8.7,8.7
		C261.2,135.8,257.4,139.6,252.6,139.6L252.6,139.6z"/>
	<g>
		<defs>
			
				<filter id="Adobe_OpacityMaskFilter_00000170985641468899158820000003849020795145243780_" filterUnits="userSpaceOnUse" x="185.4" y="128.6" width="4.7" height="4.7">
				<feColorMatrix  type="matrix" values="1 0 0 0 0  0 1 0 0 0  0 0 1 0 0  0 0 0 1 0"/>
			</filter>
		</defs>
		
			<mask maskUnits="userSpaceOnUse" x="185.4" y="128.6" width="4.7" height="4.7" id="b_00000139971905638260032220000002001170919377796003_">
			
				<path style="fill-rule:evenodd;clip-rule:evenodd;fill:#FFFFFF;filter:url(#Adobe_OpacityMaskFilter_00000170985641468899158820000003849020795145243780_);" d="
				M0.3,174.6h437.5V2.4H0.3V174.6z"/>
		</mask>
		<path class="st22" d="M189.3,129.1l-1.3,1.7v0l2-0.3v0.9l-2-0.2v0l1.3,1.6l-0.8,0.5l-0.8-1.9h0l-0.9,1.9l-0.8-0.5l1.3-1.6v0
			l-2,0.3v-0.9l2,0.3v0l-1.3-1.6l0.8-0.5l0.8,1.9h0l0.8-1.9L189.3,129.1z"/>
		<defs>
			
				<filter id="Adobe_OpacityMaskFilter_00000112621113531131565780000002108701307881878966_" filterUnits="userSpaceOnUse" x="190.9" y="128.6" width="4.7" height="4.7">
				<feColorMatrix  type="matrix" values="1 0 0 0 0  0 1 0 0 0  0 0 1 0 0  0 0 0 1 0"/>
			</filter>
		</defs>
		
			<mask maskUnits="userSpaceOnUse" x="190.9" y="128.6" width="4.7" height="4.7" id="b_00000154420290628980468560000011956253451506622368_">
			
				<path style="fill-rule:evenodd;clip-rule:evenodd;fill:#FFFFFF;filter:url(#Adobe_OpacityMaskFilter_00000112621113531131565780000002108701307881878966_);" d="
				M0.3,174.6h437.5V2.4H0.3V174.6z"/>
		</mask>
		<path class="st24" d="M194.9,129.1l-1.3,1.7v0l2-0.3v0.9l-2-0.2v0l1.3,1.6l-0.8,0.5l-0.8-1.9h0l-0.9,1.9l-0.8-0.5l1.3-1.6v0
			l-2,0.3v-0.9l2,0.3v0l-1.3-1.6l0.8-0.5l0.8,1.9h0l0.8-1.9L194.9,129.1z"/>
		<defs>
			
				<filter id="Adobe_OpacityMaskFilter_00000083802459391840610670000012021273748968901547_" filterUnits="userSpaceOnUse" x="196.4" y="128.6" width="4.7" height="4.7">
				<feColorMatrix  type="matrix" values="1 0 0 0 0  0 1 0 0 0  0 0 1 0 0  0 0 0 1 0"/>
			</filter>
		</defs>
		
			<mask maskUnits="userSpaceOnUse" x="196.4" y="128.6" width="4.7" height="4.7" id="b_00000070118091364317722500000010024379168631898809_">
			
				<path style="fill-rule:evenodd;clip-rule:evenodd;fill:#FFFFFF;filter:url(#Adobe_OpacityMaskFilter_00000083802459391840610670000012021273748968901547_);" d="
				M0.3,174.6h437.5V2.4H0.3V174.6z"/>
		</mask>
		<path class="st26" d="M200.4,129.1l-1.3,1.7v0l2-0.3v0.9l-2-0.2v0l1.3,1.6l-0.8,0.5l-0.8-1.9h0l-0.9,1.9l-0.8-0.5l1.3-1.6v0
			l-2,0.3v-0.9l2,0.3v0l-1.3-1.6l0.8-0.5l0.8,1.9h0l0.8-1.9L200.4,129.1z"/>
		<defs>
			
				<filter id="Adobe_OpacityMaskFilter_00000012439506273846832360000001206548386923197575_" filterUnits="userSpaceOnUse" x="202" y="128.6" width="4.7" height="4.7">
				<feColorMatrix  type="matrix" values="1 0 0 0 0  0 1 0 0 0  0 0 1 0 0  0 0 0 1 0"/>
			</filter>
		</defs>
		
			<mask maskUnits="userSpaceOnUse" x="202" y="128.6" width="4.7" height="4.7" id="b_00000100351408071479790490000001855373107979093398_">
			
				<path style="fill-rule:evenodd;clip-rule:evenodd;fill:#FFFFFF;filter:url(#Adobe_OpacityMaskFilter_00000012439506273846832360000001206548386923197575_);" d="
				M0.3,174.6h437.5V2.4H0.3V174.6z"/>
		</mask>
		<path class="st28" d="M206,129.1l-1.3,1.7v0l2-0.3v0.9l-2-0.2v0l1.3,1.6l-0.8,0.5l-0.8-1.9h0l-0.9,1.9l-0.8-0.5l1.3-1.6v0l-2,0.3
			v-0.9l2,0.3v0l-1.3-1.6l0.8-0.5l0.8,1.9h0l0.8-1.9L206,129.1z"/>
		<defs>
			
				<filter id="Adobe_OpacityMaskFilter_00000121266087727720476860000018044378568135326609_" filterUnits="userSpaceOnUse" x="89.5" y="171.1" width="24.9" height="2">
				<feColorMatrix  type="matrix" values="1 0 0 0 0  0 1 0 0 0  0 0 1 0 0  0 0 0 1 0"/>
			</filter>
		</defs>
		
			<mask maskUnits="userSpaceOnUse" x="89.5" y="171.1" width="24.9" height="2" id="b_00000088125261496506425610000017805099217963413931_">
			
				<path style="fill-rule:evenodd;clip-rule:evenodd;fill:#FFFFFF;filter:url(#Adobe_OpacityMaskFilter_00000121266087727720476860000018044378568135326609_);" d="
				M0.3,174.6h437.5V2.4H0.3V174.6z"/>
		</mask>
		<path class="st30" d="M90.4,171.1h23.1c0.5,0,0.9,0.4,0.9,0.9v0.2c0,0.5-0.4,0.9-0.9,0.9H90.4c-0.5,0-0.9-0.4-0.9-0.9V172
			C89.5,171.5,89.9,171.1,90.4,171.1"/>
		<defs>
			
				<filter id="Adobe_OpacityMaskFilter_00000001623457481331086700000012616390120833052078_" filterUnits="userSpaceOnUse" x="334.7" y="171.1" width="34.9" height="2">
				<feColorMatrix  type="matrix" values="1 0 0 0 0  0 1 0 0 0  0 0 1 0 0  0 0 0 1 0"/>
			</filter>
		</defs>
		
			<mask maskUnits="userSpaceOnUse" x="334.7" y="171.1" width="34.9" height="2" id="b_00000162316116888338684510000006660854806602777778_">
			
				<path style="fill-rule:evenodd;clip-rule:evenodd;fill:#FFFFFF;filter:url(#Adobe_OpacityMaskFilter_00000001623457481331086700000012616390120833052078_);" d="
				M0.3,174.6h437.5V2.4H0.3V174.6z"/>
		</mask>
		<path class="st32" d="M335.6,171.1h33.1c0.5,0,0.9,0.4,0.9,0.9v0.2c0,0.5-0.4,0.9-0.9,0.9h-33.1c-0.5,0-0.9-0.4-0.9-0.9V172
			C334.7,171.5,335.1,171.1,335.6,171.1"/>
		<defs>
			
				<filter id="Adobe_OpacityMaskFilter_00000014592822571852943890000001515837477910738100_" filterUnits="userSpaceOnUse" x="323.7" y="79.6" width="34.9" height="2">
				<feColorMatrix  type="matrix" values="1 0 0 0 0  0 1 0 0 0  0 0 1 0 0  0 0 0 1 0"/>
			</filter>
		</defs>
		
			<mask maskUnits="userSpaceOnUse" x="323.7" y="79.6" width="34.9" height="2" id="b_00000034787876715776910250000001611288826928399763_">
			
				<path style="fill-rule:evenodd;clip-rule:evenodd;fill:#FFFFFF;filter:url(#Adobe_OpacityMaskFilter_00000014592822571852943890000001515837477910738100_);" d="
				M0.3,174.6h437.5V2.4H0.3V174.6z"/>
		</mask>
		<path class="st34" d="M324.6,79.6h33.1c0.5,0,0.9,0.4,0.9,0.9v0.2c0,0.5-0.4,0.9-0.9,0.9h-33.1c-0.5,0-0.9-0.4-0.9-0.9v-0.2
			C323.7,80,324.1,79.6,324.6,79.6"/>
		<defs>
			
				<filter id="Adobe_OpacityMaskFilter_00000064339205504455843820000002683039551601006750_" filterUnits="userSpaceOnUse" x="317.7" y="171.2" width="13.9" height="2">
				<feColorMatrix  type="matrix" values="1 0 0 0 0  0 1 0 0 0  0 0 1 0 0  0 0 0 1 0"/>
			</filter>
		</defs>
		
			<mask maskUnits="userSpaceOnUse" x="317.7" y="171.2" width="13.9" height="2" id="b_00000127749846909392234800000008670442357797900479_">
			
				<path style="fill-rule:evenodd;clip-rule:evenodd;fill:#FFFFFF;filter:url(#Adobe_OpacityMaskFilter_00000064339205504455843820000002683039551601006750_);" d="
				M0.3,174.6h437.5V2.4H0.3V174.6z"/>
		</mask>
		<path class="st36" d="M318.6,171.2h12.1c0.5,0,0.9,0.4,0.9,0.9v0.2c0,0.5-0.4,0.9-0.9,0.9h-12.1c-0.5,0-0.9-0.4-0.9-0.9v-0.2
			C317.7,171.6,318.1,171.2,318.6,171.2"/>
		<defs>
			
				<filter id="Adobe_OpacityMaskFilter_00000101818017444875243190000011196535818929123723_" filterUnits="userSpaceOnUse" x="144.1" y="121.5" width="3.1" height="3.1">
				<feColorMatrix  type="matrix" values="1 0 0 0 0  0 1 0 0 0  0 0 1 0 0  0 0 0 1 0"/>
			</filter>
		</defs>
		
			<mask maskUnits="userSpaceOnUse" x="144.1" y="121.5" width="3.1" height="3.1" id="b_00000111166590054047278950000015573215441216252083_">
			
				<path style="fill-rule:evenodd;clip-rule:evenodd;fill:#FFFFFF;filter:url(#Adobe_OpacityMaskFilter_00000101818017444875243190000011196535818929123723_);" d="
				M0.3,174.6h437.5V2.4H0.3V174.6z"/>
		</mask>
		<path class="st38" d="M145.6,124.5c-0.8,0-1.5-0.7-1.5-1.5c0-0.8,0.7-1.5,1.5-1.5c0.8,0,1.5,0.7,1.5,1.5
			C147.1,123.8,146.5,124.5,145.6,124.5"/>
		<defs>
			
				<filter id="Adobe_OpacityMaskFilter_00000023968874757522000700000015757113646617375154_" filterUnits="userSpaceOnUse" x="262.9" y="6.8" width="9.9" height="3.9">
				<feColorMatrix  type="matrix" values="1 0 0 0 0  0 1 0 0 0  0 0 1 0 0  0 0 0 1 0"/>
			</filter>
		</defs>
		
			<mask maskUnits="userSpaceOnUse" x="262.9" y="6.8" width="9.9" height="3.9" id="b_00000021085888587212809270000014517121690947160458_">
			
				<path style="fill-rule:evenodd;clip-rule:evenodd;fill:#FFFFFF;filter:url(#Adobe_OpacityMaskFilter_00000023968874757522000700000015757113646617375154_);" d="
				M0.3,174.6h437.5V2.4H0.3V174.6z"/>
		</mask>
		<path class="st40" d="M263,7.8c-0.1,0.7,0.4,1.4,1.1,1.5l7.3,1.3c0.4,0.1,0.7,0,1-0.2c0.3-0.2,0.5-0.5,0.5-0.8
			c0.1-0.7-0.4-1.4-1.1-1.5l-7.3-1.3c-0.4-0.1-0.7,0-1,0.2C263.2,7.2,263,7.5,263,7.8"/>
		<defs>
			
				<filter id="Adobe_OpacityMaskFilter_00000022558096668150715460000006607881221382241195_" filterUnits="userSpaceOnUse" x="266.4" y="3.7" width="3" height="10">
				<feColorMatrix  type="matrix" values="1 0 0 0 0  0 1 0 0 0  0 0 1 0 0  0 0 0 1 0"/>
			</filter>
		</defs>
		
			<mask maskUnits="userSpaceOnUse" x="266.4" y="3.7" width="3" height="10" id="b_00000124144295394984275830000005446072887481601951_">
			
				<path style="fill-rule:evenodd;clip-rule:evenodd;fill:#FFFFFF;filter:url(#Adobe_OpacityMaskFilter_00000022558096668150715460000006607881221382241195_);" d="
				M0.3,174.6h437.5V2.4H0.3V174.6z"/>
		</mask>
		<path class="st42" d="M268.2,3.7c0.7,0,1.3,0.7,1.2,1.4l-0.4,7.4c0,0.4-0.2,0.7-0.4,0.9c-0.2,0.2-0.6,0.3-0.9,0.3
			c-0.7,0-1.3-0.7-1.2-1.4l0.4-7.4c0-0.4,0.2-0.7,0.4-0.9C267.5,3.8,267.8,3.7,268.2,3.7"/>
		<defs>
			
				<filter id="Adobe_OpacityMaskFilter_00000160906657160326165640000008816500185113705638_" filterUnits="userSpaceOnUse" x="124.6" y="14.4" width="2.7" height="2.7">
				<feColorMatrix  type="matrix" values="1 0 0 0 0  0 1 0 0 0  0 0 1 0 0  0 0 0 1 0"/>
			</filter>
		</defs>
		
			<mask maskUnits="userSpaceOnUse" x="124.6" y="14.4" width="2.7" height="2.7" id="b_00000060721565615497673010000000864926708069055406_">
			
				<path style="fill-rule:evenodd;clip-rule:evenodd;fill:#FFFFFF;filter:url(#Adobe_OpacityMaskFilter_00000160906657160326165640000008816500185113705638_);" d="
				M0.3,174.6h437.5V2.4H0.3V174.6z"/>
		</mask>
		<path class="st44" d="M127.3,15.7c0,0.7-0.6,1.4-1.4,1.4c-0.7,0-1.4-0.6-1.4-1.4c0-0.7,0.6-1.4,1.4-1.4
			C126.7,14.4,127.3,15,127.3,15.7"/>
		<defs>
			
				<filter id="Adobe_OpacityMaskFilter_00000182485863646717383940000009156862922265659832_" filterUnits="userSpaceOnUse" x="182.3" y="47.5" width="2" height="2">
				<feColorMatrix  type="matrix" values="1 0 0 0 0  0 1 0 0 0  0 0 1 0 0  0 0 0 1 0"/>
			</filter>
		</defs>
		
			<mask maskUnits="userSpaceOnUse" x="182.3" y="47.5" width="2" height="2" id="b_00000073693145912414804510000009821344277420964030_">
			
				<path style="fill-rule:evenodd;clip-rule:evenodd;fill:#FFFFFF;filter:url(#Adobe_OpacityMaskFilter_00000182485863646717383940000009156862922265659832_);" d="
				M0.3,174.6h437.5V2.4H0.3V174.6z"/>
		</mask>
		<path class="st46" d="M184.3,48.5c0,0.6-0.4,1-1,1c-0.6,0-1-0.4-1-1s0.4-1,1-1C183.9,47.5,184.3,47.9,184.3,48.5"/>
		<defs>
			
				<filter id="Adobe_OpacityMaskFilter_00000065048153412551104070000014696948755242689930_" filterUnits="userSpaceOnUse" x="334.6" y="126" width="3.9" height="9.9">
				<feColorMatrix  type="matrix" values="1 0 0 0 0  0 1 0 0 0  0 0 1 0 0  0 0 0 1 0"/>
			</filter>
		</defs>
		
			<mask maskUnits="userSpaceOnUse" x="334.6" y="126" width="3.9" height="9.9" id="b_00000065039867986323931830000011565298899126808992_">
			
				<path style="fill-rule:evenodd;clip-rule:evenodd;fill:#FFFFFF;filter:url(#Adobe_OpacityMaskFilter_00000065048153412551104070000014696948755242689930_);" d="
				M0.3,174.6h437.5V2.4H0.3V174.6z"/>
		</mask>
		<path class="st48" d="M337.5,135.9c0.7-0.1,1.2-0.8,1-1.5l-1.3-7.3c-0.1-0.4-0.3-0.6-0.5-0.8c-0.3-0.2-0.6-0.3-1-0.2
			c-0.7,0.1-1.2,0.8-1,1.5l1.3,7.3c0.1,0.4,0.3,0.6,0.5,0.8C336.8,135.9,337.1,136,337.5,135.9"/>
		<defs>
			
				<filter id="Adobe_OpacityMaskFilter_00000019674540620411012320000003123461887883587982_" filterUnits="userSpaceOnUse" x="331.7" y="128.6" width="9.7" height="4.8">
				<feColorMatrix  type="matrix" values="1 0 0 0 0  0 1 0 0 0  0 0 1 0 0  0 0 0 1 0"/>
			</filter>
		</defs>
		
			<mask maskUnits="userSpaceOnUse" x="331.7" y="128.6" width="9.7" height="4.8" id="b_00000026853315567334617460000013570589716487168684_">
			
				<path style="fill-rule:evenodd;clip-rule:evenodd;fill:#FFFFFF;filter:url(#Adobe_OpacityMaskFilter_00000019674540620411012320000003123461887883587982_);" d="
				M0.3,174.6h437.5V2.4H0.3V174.6z"/>
		</mask>
		<path class="st50" d="M331.8,132.4c-0.2-0.7,0.2-1.4,0.9-1.6l7.1-2.2c0.3-0.1,0.7-0.1,1,0.1c0.3,0.2,0.5,0.4,0.6,0.8
			c0.2,0.7-0.2,1.4-0.9,1.6l-7.1,2.2c-0.3,0.1-0.7,0.1-1-0.1C332.1,133,331.9,132.8,331.8,132.4"/>
		<defs>
			
				<filter id="Adobe_OpacityMaskFilter_00000101784000772397220310000010493267887284547991_" filterUnits="userSpaceOnUse" x="78.5" y="105.9" width="1.6" height="8">
				<feColorMatrix  type="matrix" values="1 0 0 0 0  0 1 0 0 0  0 0 1 0 0  0 0 0 1 0"/>
			</filter>
		</defs>
		
			<mask maskUnits="userSpaceOnUse" x="78.5" y="105.9" width="1.6" height="8" id="b_00000061447038680355986780000002174738875761026700_">
			
				<path style="fill-rule:evenodd;clip-rule:evenodd;fill:#FFFFFF;filter:url(#Adobe_OpacityMaskFilter_00000101784000772397220310000010493267887284547991_);" d="
				M0.3,174.6h437.5V2.4H0.3V174.6z"/>
		</mask>
		<path class="st52" d="M79.3,113.9c-0.4,0-0.8-0.5-0.8-1v-6c0-0.6,0.4-1,0.8-1s0.8,0.5,0.8,1v6C80.1,113.4,79.8,113.9,79.3,113.9"
			/>
		<defs>
			
				<filter id="Adobe_OpacityMaskFilter_00000084520455139098806900000017615238198533338553_" filterUnits="userSpaceOnUse" x="75.3" y="109.1" width="8" height="1.6">
				<feColorMatrix  type="matrix" values="1 0 0 0 0  0 1 0 0 0  0 0 1 0 0  0 0 0 1 0"/>
			</filter>
		</defs>
		
			<mask maskUnits="userSpaceOnUse" x="75.3" y="109.1" width="8" height="1.6" id="b_00000090287946241504703800000000226071993805978257_">
			
				<path style="fill-rule:evenodd;clip-rule:evenodd;fill:#FFFFFF;filter:url(#Adobe_OpacityMaskFilter_00000084520455139098806900000017615238198533338553_);" d="
				M0.3,174.6h437.5V2.4H0.3V174.6z"/>
		</mask>
		<path class="st54" d="M83.3,109.9c0,0.4-0.5,0.8-1,0.8h-6c-0.6,0-1-0.4-1-0.8s0.5-0.8,1-0.8h6C82.9,109.1,83.3,109.5,83.3,109.9"
			/>
		<defs>
			
				<filter id="Adobe_OpacityMaskFilter_00000011015613222014301100000007354571543303724674_" filterUnits="userSpaceOnUse" x="221" y="37.4" width="30" height="30">
				<feColorMatrix  type="matrix" values="1 0 0 0 0  0 1 0 0 0  0 0 1 0 0  0 0 0 1 0"/>
			</filter>
		</defs>
		
			<mask maskUnits="userSpaceOnUse" x="221" y="37.4" width="30" height="30" id="b_00000039854922287589811400000014174868712090256315_">
			
				<path style="fill-rule:evenodd;clip-rule:evenodd;fill:#FFFFFF;filter:url(#Adobe_OpacityMaskFilter_00000011015613222014301100000007354571543303724674_);" d="
				M0.3,174.6h437.5V2.4H0.3V174.6z"/>
		</mask>
		<path class="st56" d="M251,52.4c0,8.3-6.7,15-15,15c-8.3,0-15-6.7-15-15s6.7-15,15-15C244.3,37.4,251,44.1,251,52.4"/>
	</g>
	<defs>
		
			<filter id="Adobe_OpacityMaskFilter_00000077313196738875400490000009747701260664407218_" filterUnits="userSpaceOnUse" x="223.1" y="39.5" width="25.8" height="25.8">
			<feColorMatrix  type="matrix" values="1 0 0 0 0  0 1 0 0 0  0 0 1 0 0  0 0 0 1 0"/>
		</filter>
	</defs>
	
		<mask maskUnits="userSpaceOnUse" x="223.1" y="39.5" width="25.8" height="25.8" id="b_00000049197285174895958440000007145160126659662507_">
		
			<path style="fill-rule:evenodd;clip-rule:evenodd;fill:#FFFFFF;filter:url(#Adobe_OpacityMaskFilter_00000077313196738875400490000009747701260664407218_);" d="
			M0.3,174.6h437.5V2.4H0.3V174.6z"/>
	</mask>
	<path class="st58" d="M248.9,52.4c0,7.1-5.8,12.9-12.9,12.9c-7.1,0-12.9-5.8-12.9-12.9s5.8-12.9,12.9-12.9
		C243.1,39.5,248.9,45.3,248.9,52.4"/>
	<defs>
		
			<filter id="Adobe_OpacityMaskFilter_00000069395915350894519200000000696266944782487482_" filterUnits="userSpaceOnUse" x="224.9" y="41.3" width="22.2" height="22.2">
			<feColorMatrix  type="matrix" values="1 0 0 0 0  0 1 0 0 0  0 0 1 0 0  0 0 0 1 0"/>
		</filter>
	</defs>
	
		<mask maskUnits="userSpaceOnUse" x="224.9" y="41.3" width="22.2" height="22.2" id="b_00000072246695062437885720000005508982648585311893_">
		
			<path style="fill-rule:evenodd;clip-rule:evenodd;fill:#FFFFFF;filter:url(#Adobe_OpacityMaskFilter_00000069395915350894519200000000696266944782487482_);" d="
			M0.3,174.6h437.5V2.4H0.3V174.6z"/>
	</mask>
	<path class="st60" d="M247.1,52.4c0,6.1-5,11.1-11.1,11.1s-11.1-5-11.1-11.1c0-6.1,5-11.1,11.1-11.1S247.1,46.2,247.1,52.4"/>
	<defs>
		
			<filter id="Adobe_OpacityMaskFilter_00000029730347682670820360000005595587893175249838_" filterUnits="userSpaceOnUse" x="228.4" y="64.8" width="14.4" height="7.6">
			<feColorMatrix  type="matrix" values="1 0 0 0 0  0 1 0 0 0  0 0 1 0 0  0 0 0 1 0"/>
		</filter>
	</defs>
	
		<mask maskUnits="userSpaceOnUse" x="228.4" y="64.8" width="14.4" height="7.6" id="b_00000034783449166927917510000004460858787599945351_">
		
			<path style="fill-rule:evenodd;clip-rule:evenodd;fill:#FFFFFF;filter:url(#Adobe_OpacityMaskFilter_00000029730347682670820360000005595587893175249838_);" d="
			M0.3,174.6h437.5V2.4H0.3V174.6z"/>
	</mask>
	<path class="st62" d="M228.4,64.8l7.9,7.6l6.6-7.1l-7.1,0.9L228.4,64.8z"/>
	<defs>
		
			<filter id="Adobe_OpacityMaskFilter_00000133519050483137079410000012881373701561797823_" filterUnits="userSpaceOnUse" x="230.7" y="43.9" width="9.5" height="17">
			<feColorMatrix  type="matrix" values="1 0 0 0 0  0 1 0 0 0  0 0 1 0 0  0 0 0 1 0"/>
		</filter>
	</defs>
	
		<mask maskUnits="userSpaceOnUse" x="230.7" y="43.9" width="9.5" height="17" id="b_00000054982269206585361790000010072184936972033667_">
		
			<path style="fill-rule:evenodd;clip-rule:evenodd;fill:#FFFFFF;filter:url(#Adobe_OpacityMaskFilter_00000133519050483137079410000012881373701561797823_);" d="
			M0.3,174.6h437.5V2.4H0.3V174.6z"/>
	</mask>
	<path class="st64" d="M234.5,56.1l-0.1-0.7c-0.1-0.9,0-1.6,0.2-2.2c0.2-0.5,0.6-1.1,1.1-1.7l0.2-0.2c0.8-0.8,1.3-1.4,1.5-1.8
		c0.2-0.4,0.3-0.9,0.2-1.5c-0.1-0.7-0.3-1.1-0.7-1.5c-0.4-0.3-1-0.4-1.8-0.4c-0.7,0.1-1.3,0.2-1.9,0.5c-0.6,0.3-1.1,0.6-1.6,0.9
		l-1.1-2c1.4-1,2.9-1.6,4.6-1.7c1.4-0.1,2.5,0.2,3.4,0.8c0.9,0.7,1.4,1.7,1.5,3c0,0.6,0,1.1-0.1,1.6c-0.1,0.5-0.3,0.9-0.6,1.4
		c-0.3,0.4-0.7,0.9-1.3,1.5l-0.2,0.2c-0.6,0.6-1,1.1-1.2,1.5c-0.2,0.4-0.3,0.9-0.2,1.5l0,0.5L234.5,56.1z M234.2,59.4
		c-0.1-1.1,0.4-1.6,1.4-1.7c0.5,0,0.9,0.1,1.2,0.3c0.3,0.3,0.5,0.6,0.5,1.1c0,0.5-0.1,0.9-0.3,1.2c-0.2,0.3-0.6,0.5-1.1,0.5
		c-0.5,0-0.9-0.1-1.2-0.3C234.4,60.3,234.2,59.9,234.2,59.4z"/>
	<defs>
		
			<filter id="Adobe_OpacityMaskFilter_00000078737775280604024690000015549332741475935676_" filterUnits="userSpaceOnUse" x="259.8" y="55" width="19.3" height="19.3">
			<feColorMatrix  type="matrix" values="1 0 0 0 0  0 1 0 0 0  0 0 1 0 0  0 0 0 1 0"/>
		</filter>
	</defs>
	
		<mask maskUnits="userSpaceOnUse" x="259.8" y="55" width="19.3" height="19.3" id="b_00000135684220990163124870000008006378629556310954_">
		
			<path style="fill-rule:evenodd;clip-rule:evenodd;fill:#FFFFFF;filter:url(#Adobe_OpacityMaskFilter_00000078737775280604024690000015549332741475935676_);" d="
			M0.3,174.6h437.5V2.4H0.3V174.6z"/>
	</mask>
	<path class="st66" d="M278.8,66.7c-1.1,5.2-6.2,8.5-11.5,7.4c-5.2-1.1-8.5-6.2-7.4-11.5c1.1-5.2,6.2-8.5,11.5-7.4
		C276.6,56.4,280,61.5,278.8,66.7"/>
	<defs>
		
			<filter id="Adobe_OpacityMaskFilter_00000111153733684297206650000009802807377454126210_" filterUnits="userSpaceOnUse" x="261.1" y="56.4" width="16.6" height="16.6">
			<feColorMatrix  type="matrix" values="1 0 0 0 0  0 1 0 0 0  0 0 1 0 0  0 0 0 1 0"/>
		</filter>
	</defs>
	
		<mask maskUnits="userSpaceOnUse" x="261.1" y="56.4" width="16.6" height="16.6" id="b_00000000926944898343818350000002564910345148572843_">
		
			<path style="fill-rule:evenodd;clip-rule:evenodd;fill:#FFFFFF;filter:url(#Adobe_OpacityMaskFilter_00000111153733684297206650000009802807377454126210_);" d="
			M0.3,174.6h437.5V2.4H0.3V174.6z"/>
	</mask>
	<path class="st68" d="M277.5,66.4c-1,4.5-5.4,7.3-9.8,6.4c-4.5-1-7.3-5.4-6.4-9.8s5.4-7.3,9.8-6.4
		C275.6,57.5,278.5,61.9,277.5,66.4"/>
	<defs>
		
			<filter id="Adobe_OpacityMaskFilter_00000144305577158749425140000009974942199698707111_" filterUnits="userSpaceOnUse" x="262.3" y="57.5" width="14.3" height="14.3">
			<feColorMatrix  type="matrix" values="1 0 0 0 0  0 1 0 0 0  0 0 1 0 0  0 0 0 1 0"/>
		</filter>
	</defs>
	
		<mask maskUnits="userSpaceOnUse" x="262.3" y="57.5" width="14.3" height="14.3" id="b_00000070091271056462645040000006391531877016234406_">
		
			<path style="fill-rule:evenodd;clip-rule:evenodd;fill:#FFFFFF;filter:url(#Adobe_OpacityMaskFilter_00000144305577158749425140000009974942199698707111_);" d="
			M0.3,174.6h437.5V2.4H0.3V174.6z"/>
	</mask>
	<path class="st70" d="M276.4,66.2c-0.8,3.9-4.6,6.3-8.5,5.5s-6.3-4.6-5.5-8.5s4.6-6.3,8.5-5.5C274.8,58.5,277.2,62.3,276.4,66.2"/>
	<defs>
		
			<filter id="Adobe_OpacityMaskFilter_00000067222822890285323780000016617787392131250354_" filterUnits="userSpaceOnUse" x="263.3" y="72.2" width="8.7" height="5.1">
			<feColorMatrix  type="matrix" values="1 0 0 0 0  0 1 0 0 0  0 0 1 0 0  0 0 0 1 0"/>
		</filter>
	</defs>
	
		<mask maskUnits="userSpaceOnUse" x="263.3" y="72.2" width="8.7" height="5.1" id="b_00000076592645465745688250000001890298357069028009_">
		
			<path style="fill-rule:evenodd;clip-rule:evenodd;fill:#FFFFFF;filter:url(#Adobe_OpacityMaskFilter_00000067222822890285323780000016617787392131250354_);" d="
			M0.3,174.6h437.5V2.4H0.3V174.6z"/>
	</mask>
	<path class="st72" d="M263.3,72.2l3.6,5.1l5.1-3.6L263.3,72.2z"/>
	<defs>
		
			<filter id="Adobe_OpacityMaskFilter_00000164481394762346692760000000952830447428726948_" filterUnits="userSpaceOnUse" x="268" y="60.2" width="2.8" height="9">
			<feColorMatrix  type="matrix" values="1 0 0 0 0  0 1 0 0 0  0 0 1 0 0  0 0 0 1 0"/>
		</filter>
	</defs>
	
		<mask maskUnits="userSpaceOnUse" x="268" y="60.2" width="2.8" height="9" id="b_00000050656964207065938450000001307347254204659888_">
		
			<path style="fill-rule:evenodd;clip-rule:evenodd;fill:#FFFFFF;filter:url(#Adobe_OpacityMaskFilter_00000164481394762346692760000000952830447428726948_);" d="
			M0.3,174.6h437.5V2.4H0.3V174.6z"/>
	</mask>
	<path class="st74" d="M269.6,66.6l-1-0.1l0.6-6.3l1.6,0.2L269.6,66.6z M268,68.2c0-0.3,0.1-0.5,0.3-0.6c0.2-0.1,0.4-0.2,0.6-0.1
		c0.3,0,0.4,0.1,0.6,0.3c0.1,0.2,0.2,0.4,0.1,0.7s-0.1,0.5-0.3,0.6s-0.4,0.2-0.6,0.2c-0.3,0-0.4-0.1-0.6-0.3
		C268,68.7,268,68.5,268,68.2L268,68.2z"/>
	<defs>
		
			<filter id="Adobe_OpacityMaskFilter_00000042016803720728109900000016989907828428104349_" filterUnits="userSpaceOnUse" x="314.5" y="116.6" width="2" height="2">
			<feColorMatrix  type="matrix" values="1 0 0 0 0  0 1 0 0 0  0 0 1 0 0  0 0 0 1 0"/>
		</filter>
	</defs>
	
		<mask maskUnits="userSpaceOnUse" x="314.5" y="116.6" width="2" height="2" id="b_00000090253009438470074100000005959777407505751425_">
		
			<path style="fill-rule:evenodd;clip-rule:evenodd;fill:#FFFFFF;filter:url(#Adobe_OpacityMaskFilter_00000042016803720728109900000016989907828428104349_);" d="
			M0.3,174.6h437.5V2.4H0.3V174.6z"/>
	</mask>
	<path class="st76" d="M316.5,117.6c0,0.6-0.4,1-1,1c-0.6,0-1-0.4-1-1s0.4-1,1-1C316,116.6,316.5,117.1,316.5,117.6"/>
	<defs>
		
			<filter id="Adobe_OpacityMaskFilter_00000178196347526699610790000010193970087902401447_" filterUnits="userSpaceOnUse" x="114.5" y="111.6" width="2" height="2">
			<feColorMatrix  type="matrix" values="1 0 0 0 0  0 1 0 0 0  0 0 1 0 0  0 0 0 1 0"/>
		</filter>
	</defs>
	
		<mask maskUnits="userSpaceOnUse" x="114.5" y="111.6" width="2" height="2" id="b_00000086688699981533877780000005884101884146619838_">
		
			<path style="fill-rule:evenodd;clip-rule:evenodd;fill:#FFFFFF;filter:url(#Adobe_OpacityMaskFilter_00000178196347526699610790000010193970087902401447_);" d="
			M0.3,174.6h437.5V2.4H0.3V174.6z"/>
	</mask>
	<path class="st78" d="M116.5,112.6c0,0.6-0.4,1-1,1c-0.6,0-1-0.4-1-1s0.4-1,1-1C116,111.6,116.5,112.1,116.5,112.6"/>
	<defs>
		
			<filter id="Adobe_OpacityMaskFilter_00000089557488334508889060000005765929739315837848_" filterUnits="userSpaceOnUse" x="208" y="22" width="1" height="5">
			<feColorMatrix  type="matrix" values="1 0 0 0 0  0 1 0 0 0  0 0 1 0 0  0 0 0 1 0"/>
		</filter>
	</defs>
	
		<mask maskUnits="userSpaceOnUse" x="208" y="22" width="1" height="5" id="b_00000060015747876283338430000017562485503570399660_">
		
			<path style="fill-rule:evenodd;clip-rule:evenodd;fill:#FFFFFF;filter:url(#Adobe_OpacityMaskFilter_00000089557488334508889060000005765929739315837848_);" d="
			M0.3,174.6h437.5V2.4H0.3V174.6z"/>
	</mask>
	<path class="st80" d="M208.5,27c-0.3,0-0.5-0.3-0.5-0.6v-3.7c0-0.4,0.2-0.6,0.5-0.6c0.3,0,0.5,0.3,0.5,0.6v3.7
		C209,26.7,208.8,27,208.5,27"/>
	<defs>
		
			<filter id="Adobe_OpacityMaskFilter_00000119826338208838873560000002618486429784022953_" filterUnits="userSpaceOnUse" x="206" y="24" width="5" height="1">
			<feColorMatrix  type="matrix" values="1 0 0 0 0  0 1 0 0 0  0 0 1 0 0  0 0 0 1 0"/>
		</filter>
	</defs>
	
		<mask maskUnits="userSpaceOnUse" x="206" y="24" width="5" height="1" id="b_00000150792575735696065860000013357625455479978655_">
		
			<path style="fill-rule:evenodd;clip-rule:evenodd;fill:#FFFFFF;filter:url(#Adobe_OpacityMaskFilter_00000119826338208838873560000002618486429784022953_);" d="
			M0.3,174.6h437.5V2.4H0.3V174.6z"/>
	</mask>
	<path class="st82" d="M211,24.5c0,0.3-0.3,0.5-0.6,0.5h-3.7c-0.4,0-0.6-0.2-0.6-0.5s0.3-0.5,0.6-0.5h3.7
		C210.7,24,211,24.2,211,24.5"/>
</g>
</svg>
