<?xml version="1.0" encoding="utf-8"?>
<!-- Generator: Adobe Illustrator 28.4.1, SVG Export Plug-In . SVG Version: 6.00 Build 0)  -->
<svg version="1.1" id="Layer_1" xmlns="http://www.w3.org/2000/svg" xmlns:xlink="http://www.w3.org/1999/xlink" x="0px" y="0px"
	 viewBox="0 0 56 56" style="enable-background:new 0 0 56 56;" xml:space="preserve">
<style type="text/css">
	.st0{fill:#FFF3DE;}
	.st1{fill:none;stroke:#C77900;stroke-width:2.1;stroke-linecap:round;stroke-linejoin:round;}
</style>
<path class="st0" d="M28,0L28,0c15.5,0,28,12.5,28,28l0,0c0,15.5-12.5,28-28,28l0,0C12.5,56,0,43.5,0,28l0,0C0,12.5,12.5,0,28,0z"/>
<path class="st1" d="M36.2,26.8H19.8c-1.3,0-2.3,1-2.3,2.3c0,0,0,0,0,0v8.2c0,1.3,1,2.3,2.3,2.3c0,0,0,0,0,0h16.3
	c1.3,0,2.3-1,2.3-2.3c0,0,0,0,0,0v-8.2C38.5,27.9,37.5,26.8,36.2,26.8C36.2,26.8,36.2,26.8,36.2,26.8z M22.2,26.8v-4.7
	c0-3.2,2.6-5.8,5.8-5.8s5.8,2.6,5.8,5.8c0,0,0,0,0,0v4.7"/>
</svg>
